<?xml version="1.0" encoding="UTF-8" standalone="no"?>
<!DOCTYPE svg PUBLIC "-//W3C//DTD SVG 1.1//EN" "http://www.w3.org/Graphics/SVG/1.1/DTD/svg11.dtd">
<svg xmlns="http://www.w3.org/2000/svg" version="1.1" viewBox="0.00 0.00 512.00 511.00">
<path fill="#ffffff" d="
  M 466.36 255.50
  A 210.36 210.36 0.0 0 1 256.00 465.86
  A 210.36 210.36 0.0 0 1 45.64 255.50
  A 210.36 210.36 0.0 0 1 256.00 45.14
  A 210.36 210.36 0.0 0 1 466.36 255.50
  Z
  M 256.22 367.07
  C 326.96 366.58 378.99 302.90 365.37 233.02
  Q 365.28 232.53 364.77 232.53
  L 354.42 232.44
  A 0.44 0.43 -5.4 0 0 353.99 232.95
  Q 362.90 278.04 337.56 313.79
  C 304.51 360.40 238.29 369.67 193.73 334.06
  C 155.45 303.47 144.56 250.90 168.05 207.51
  C 192.43 162.49 246.19 143.76 293.70 162.46
  Q 294.29 162.69 294.29 162.05
  L 294.23 151.22
  Q 294.23 150.31 293.36 150.04
  Q 250.34 136.57 211.32 153.25
  C 154.82 177.42 129.89 243.16 153.28 299.19
  C 170.37 340.14 211.74 367.37 256.22 367.07
  Z
  M 240.33 265.94
  Q 240.05 266.27 239.71 266.00
  L 195.10 230.46
  A 1.06 1.06 0.0 0 0 193.78 230.47
  L 174.48 246.21
  Q 174.00 246.60 174.43 247.04
  L 252.79 327.95
  Q 253.15 328.32 253.35 327.85
  C 256.04 321.43 258.78 314.82 261.96 308.77
  Q 301.22 233.98 361.99 175.15
  Q 362.36 174.80 362.16 174.33
  L 357.86 164.18
  A 0.84 0.84 0.0 0 0 356.64 163.80
  Q 290.69 205.99 240.33 265.94
  Z"
/>
</svg>
