<?xml version="1.0" encoding="utf-8" ?>
<svg xmlns="http://www.w3.org/2000/svg" xmlns:xlink="http://www.w3.org/1999/xlink" width="512" height="512">
	<defs>
		<linearGradient id="gradient_0" gradientUnits="userSpaceOnUse" x1="182.77699" y1="718.18298" x2="190.259" y2="656.54999">
			<stop offset="0" stop-color="#EC6A00"/>
			<stop offset="1" stop-color="#F6A138"/>
		</linearGradient>
	</defs>
	<path fill="url(#gradient_0)" transform="scale(0.666667 0.666667)" d="M247.057 664.977L253.298 664.375L255.944 664.772L256.307 666.568C257.877 666.885 259.378 667.196 260.98 667.236C261.936 667.26 262.911 667.357 263.844 667.558C266.651 668.162 269.89 667.697 272.812 668.25L277.345 668.885C278.832 669.138 280.316 669.098 281.812 669.375L297.67 671.767C298.904 671.961 300.158 671.322 301.399 671.464C302.878 671.633 303.311 672.519 304.954 672.22C305.523 672.116 305.753 672.192 306.281 672.386L307.113 673.301L307.8 673.113C308.449 672.948 309.116 672.869 309.73 673.235L310.312 673.691L312.143 674.055L201.037 700.129L167.873 708.469C162.157 709.835 156.253 711.326 150.412 711.965C147.308 712.305 144.066 712.187 140.942 712.217C129.233 711.844 117.584 710.447 105.946 709.247L90.5625 707.968L78.0401 705.78C72.351 704.775 67.1455 703.992 62.0573 701.06L62.2294 700.803C64.6938 697.695 70.9632 695.679 74.6674 694.688C86.6317 691.485 98.7972 689.646 111.016 687.784L150.55 681.679L208.098 672.282L247.057 664.977Z"/>
	<path fill="#332B28" transform="scale(0.666667 0.666667)" d="M215.895 365.597L216.131 365.025C216.802 363.228 216.443 360.835 216.351 358.943L216.296 352.778L216.134 288.562L216.154 163.629L215.95 109.35L555.554 109.107L555.672 151.837L555.701 239.947L555.847 446.733L556.151 555.329L556.164 642.996L556.172 663.453C556.174 666.122 555.709 669.688 556.38 672.218L592.856 677.026L643.713 683.558L657.585 685.162C660.394 685.469 663.904 685.55 666.503 686.646C654.981 688.957 642.819 689.141 631.125 690.471L591.854 695.576L553.728 699.551L493.5 705.814L459.75 709.194L414.127 711.527L371.945 713.925L295.449 714.49L218.063 714.479L193.82 714.414L156.274 712.57C151.418 712.292 145.672 713.053 140.942 712.217C144.066 712.187 147.308 712.305 150.412 711.965C156.253 711.326 162.157 709.835 167.873 708.469L201.037 700.129L312.143 674.055L310.312 673.691L309.73 673.235C309.116 672.869 308.449 672.948 307.8 673.113L307.113 673.301L306.281 672.386C305.753 672.192 305.523 672.116 304.954 672.22C303.311 672.519 302.878 671.633 301.399 671.464C300.158 671.322 298.904 671.961 297.67 671.767L281.812 669.375C280.316 669.098 278.832 669.138 277.345 668.885L272.812 668.25C269.89 667.697 266.651 668.162 263.844 667.558C262.911 667.357 261.936 667.26 260.98 667.236C259.378 667.196 257.877 666.885 256.307 666.568L255.944 664.772L253.298 664.375L247.057 664.977L249 664.403C249.812 663.479 249.736 662.063 249.889 660.847C245.772 660.023 241.056 661.138 236.845 661.225L216.484 661.419L216.079 384.374L212.241 380.773C211.157 379.768 209.933 378.74 209.203 377.438C208.331 375.885 208.117 373.804 208.655 372.097C209.505 369.397 213.472 366.814 215.895 365.597ZM406.372 214.486C402.482 215.756 397.541 215.299 393.459 215.293L393.375 215.625L394.309 215.812C393.127 216.597 388.858 216.182 387.188 216.552L386.059 216.562L385.5 216.934C384.708 216.937 384.704 216.841 384 217.309C383.183 217.312 383.233 217.233 382.5 217.684C380.825 218.714 378.434 217.398 376.875 218.434C375.877 218.436 375.099 218.245 374.25 218.809C373.056 218.793 371.268 219.011 370.166 218.637C368.576 218.018 367.085 218.298 365.438 218.18C363.621 218.049 362.011 217.879 360.179 217.932L359.896 218.054C357.645 218.981 355.21 219.248 352.919 220.065C346.199 222.461 340.863 225.77 335.134 229.907C332.752 231.627 330.557 233.9 328.609 236.098C327.569 237.27 326.531 238.749 325.281 239.675L324.927 239.465C321.32 243.43 317.551 247.336 314.346 251.64C308.899 258.954 304.713 267.426 301.631 275.986C299.778 281.129 298.639 286.977 296.412 291.898L295.878 293.228C292.841 290.456 289.591 288.701 285.8 287.202C280.519 285.114 275.296 283.652 269.652 282.972C268.038 282.778 266.324 282.426 264.703 282.516C259.789 282.788 255.381 284.609 250.94 286.554L251.392 358.22L251.563 368.469C251.564 370.813 251.182 373.325 252.295 375.45C251.645 375.899 251.473 375.993 251.283 376.814C251.058 377.788 251.405 378.751 251.294 379.717L251.495 467.812L251.232 508.415C251.226 510.833 250.453 516.08 251.281 518.135L251.728 517.825C255.111 515.437 257.687 512.175 260.834 509.518C269.87 501.892 281.823 497.186 293.714 499.084C303.137 500.589 311.237 505.237 318.832 510.802C322.605 513.567 326.262 516.466 330.703 518.096C337.004 520.41 344.582 520.575 351.237 521.216L372.547 523.515L390.943 526.431C394.249 525.639 398.384 526.1 401.785 526.168L410.535 526.048L420.938 526.452C428.151 526.534 435.432 526.178 442.622 526.805L443.158 526.847L443.955 515.625C444.613 503.634 443.937 491.352 443.936 479.324L444.039 432.89L443.887 413.571C443.8 411.516 444.068 409.222 443.334 407.281L443.275 406.964C443.715 402.853 443.375 398.326 443.372 394.173L443.567 287.676L443.579 221.358C440.495 220.883 437.427 219.415 434.37 218.646L426.134 216.771C425.773 216.681 424.429 216.462 424.189 216.281C423.497 215.757 423.548 215.149 422.647 214.601L421.924 215.812C420.524 216.241 418.716 215.791 417.281 215.619C413.643 215.185 410.037 214.639 406.372 214.486ZM251.281 518.135C250.505 520.109 250.489 522.171 250.383 524.264C250.177 528.313 250.318 532.298 250.385 536.345L250.764 559.92L250.491 605.047L250.489 644.103L250.327 657.156C250.258 658.281 250.364 659.856 249.889 660.847C249.736 662.063 249.812 663.479 249 664.403L247.057 664.977L253.298 664.375L255.944 664.772L256.307 666.568C257.877 666.885 259.378 667.196 260.98 667.236C261.936 667.26 262.911 667.357 263.844 667.558C266.651 668.162 269.89 667.697 272.812 668.25L277.345 668.885C278.832 669.138 280.316 669.098 281.812 669.375L297.67 671.767C298.904 671.961 300.158 671.322 301.399 671.464C302.878 671.633 303.311 672.519 304.954 672.22C305.523 672.116 305.753 672.192 306.281 672.386L307.113 673.301L307.8 673.113C308.449 672.948 309.116 672.869 309.73 673.235L310.312 673.691L312.143 674.055L394.753 652.026L423.134 644.367C426.553 643.479 430.138 643.117 433.5 642.024C434.327 641.755 434.986 641.47 435.655 640.901L434.338 640.434L446.506 639.446C448.516 639.235 450.772 639.252 452.617 638.382L442.451 633.391L442.937 547.483C443.714 540.87 443.143 533.54 443.158 526.847L442.622 526.805C435.432 526.178 428.151 526.534 420.938 526.452L410.535 526.048L401.785 526.168C398.384 526.1 394.249 525.639 390.943 526.431L372.547 523.515L351.237 521.216C344.582 520.575 337.004 520.41 330.703 518.096C326.262 516.466 322.605 513.567 318.832 510.802C311.237 505.237 303.137 500.589 293.714 499.084C281.823 497.186 269.87 501.892 260.834 509.518C257.687 512.175 255.111 515.437 251.728 517.825L251.281 518.135ZM250.94 286.554C255.381 284.609 259.789 282.788 264.703 282.516C266.324 282.426 268.038 282.778 269.652 282.972C275.296 283.652 280.519 285.114 285.8 287.202C289.591 288.701 292.841 290.456 295.878 293.228L296.412 291.898C298.639 286.977 299.778 281.129 301.631 275.986C304.713 267.426 308.899 258.954 314.346 251.64C317.551 247.336 321.32 243.43 324.927 239.465L325.281 239.675C326.531 238.749 327.569 237.27 328.609 236.098C330.557 233.9 332.752 231.627 335.134 229.907C340.863 225.77 346.199 222.461 352.919 220.065C355.21 219.248 357.645 218.981 359.896 218.054L360.179 217.932C362.011 217.879 363.621 218.049 365.438 218.18C367.085 218.298 368.576 218.018 370.166 218.637C371.268 219.011 373.056 218.793 374.25 218.809C375.099 218.245 375.877 218.436 376.875 218.434C378.434 217.398 380.825 218.714 382.5 217.684C383.233 217.233 383.183 217.312 384 217.309C384.704 216.841 384.708 216.937 385.5 216.934L386.059 216.562L387.188 216.552C388.858 216.182 393.127 216.597 394.309 215.812L393.375 215.625L393.459 215.293C397.541 215.299 402.482 215.756 406.372 214.486C410.037 214.639 413.643 215.185 417.281 215.619C418.716 215.791 420.524 216.241 421.924 215.812L422.647 214.601C423.548 215.149 423.497 215.757 424.189 216.281C424.429 216.462 425.773 216.681 426.134 216.771L434.37 218.646C437.427 219.415 440.495 220.883 443.579 221.358L443.391 184.024L491.22 152.705C490.368 152.001 489.723 151.644 488.625 151.537C483.029 150.991 477.262 151.181 471.642 151.178L443.69 151.172L406.712 150.75C401.314 150.753 395.708 150.454 390.336 150.952C388.521 151.12 386.917 151.295 385.101 151.058C375.881 149.857 365.9 150.465 356.58 150.474L295.293 151.17C295.469 153.227 295.659 155.245 295.531 157.312L294.938 157.904L294.432 157.5L294.497 156.795C294.657 154.99 294.757 153.574 294.1 151.834C291.795 150.252 256.598 151.2 251.293 151.19L250.935 207.254L250.767 241.668C250.774 247.606 250.506 253.703 250.854 259.625C250.906 260.498 250.915 261.174 251.574 261.825L252.938 262.846L253.756 262.688C253.978 260.695 252.674 258.389 253.312 256.62C254.9 256.133 256.265 256.427 257.868 256.66C257.499 259.052 257.219 261.672 256.29 263.912C254.426 264.263 253.443 264.399 251.612 264.115C251.34 264.072 250.924 264.147 250.643 264.188C249.859 269.186 250.296 274.376 250.434 279.415C250.496 281.696 250.293 284.36 250.94 286.554Z"/>
	<path fill="#191408" transform="scale(0.666667 0.666667)" d="M233.972 359.748C235.472 359.455 237.987 359.217 239.356 359.963C240.867 360.786 241.169 363.029 241.362 364.545C242.153 370.793 241.741 381.21 237.562 386.261C236.797 387.187 235.981 387.925 234.75 388.051C233.408 387.611 233.262 387.568 232.33 386.4C232.113 385.02 232.524 384.268 232.575 382.99C234.228 382.122 235.666 380.816 237.123 379.655C238.019 377.035 238.295 374.007 238.298 371.25C238.302 368.897 238.316 365.553 237.18 363.453C236.436 362.077 235.068 360.854 233.972 359.748Z"/>
	<path fill="#E4DDAE" transform="scale(0.666667 0.666667)" d="M215.895 365.597C220.357 364.541 224.4 361.17 228.886 359.983C230.498 359.557 232.317 359.686 233.972 359.748C235.068 360.854 236.436 362.077 237.18 363.453C238.316 365.553 238.302 368.897 238.298 371.25C238.295 374.007 238.019 377.035 237.123 379.655C235.666 380.816 234.228 382.122 232.575 382.99C224.955 385.081 219.319 384.03 212.241 380.773C211.157 379.768 209.933 378.74 209.203 377.438C208.331 375.885 208.117 373.804 208.655 372.097C209.505 369.397 213.472 366.814 215.895 365.597Z"/>
	<path fill="#332B28" transform="scale(0.666667 0.666667)" d="M231.108 366.562L231.79 366.577C232.487 367.503 232.218 369.129 232.22 370.272L232.218 380.589C227.943 381.36 223.028 381.104 218.816 380.062L218.42 379.903C217.732 379.463 217.437 379.042 217.164 378.305C216.361 376.129 216.599 372.455 217.745 370.447C219.509 367.357 227.537 367.442 230.701 366.667L231.108 366.562Z"/>
	<path fill="#191408" transform="scale(0.666667 0.666667)" d="M250.94 286.554C250.293 284.36 250.496 281.696 250.434 279.415C250.296 274.376 249.859 269.186 250.643 264.188C250.924 264.147 251.34 264.072 251.612 264.115C253.443 264.399 254.426 264.263 256.29 263.912C257.219 261.672 257.499 259.052 257.868 256.66C256.265 256.427 254.9 256.133 253.312 256.62C252.674 258.389 253.978 260.695 253.756 262.688L252.938 262.846L251.574 261.825C250.915 261.174 250.906 260.498 250.854 259.625C250.506 253.703 250.774 247.606 250.767 241.668L250.935 207.254L251.293 151.19C256.598 151.2 291.795 150.252 294.1 151.834C294.757 153.574 294.657 154.99 294.497 156.795L294.432 157.5L294.938 157.904L295.531 157.312C295.659 155.245 295.469 153.227 295.293 151.17L356.58 150.474C365.9 150.465 375.881 149.857 385.101 151.058C386.917 151.295 388.521 151.12 390.336 150.952C395.708 150.454 401.314 150.753 406.712 150.75L443.69 151.172L471.642 151.178C477.262 151.181 483.029 150.991 488.625 151.537C489.723 151.644 490.368 152.001 491.22 152.705L443.391 184.024L443.579 221.358C440.495 220.883 437.427 219.415 434.37 218.646L426.134 216.771C425.773 216.681 424.429 216.462 424.189 216.281C423.497 215.757 423.548 215.149 422.647 214.601L421.924 215.812C420.524 216.241 418.716 215.791 417.281 215.619C413.643 215.185 410.037 214.639 406.372 214.486C402.482 215.756 397.541 215.299 393.459 215.293L393.375 215.625L394.309 215.812C393.127 216.597 388.858 216.182 387.188 216.552L386.059 216.562L385.5 216.934C384.708 216.937 384.704 216.841 384 217.309C383.183 217.312 383.233 217.233 382.5 217.684C380.825 218.714 378.434 217.398 376.875 218.434C375.877 218.436 375.099 218.245 374.25 218.809C373.056 218.793 371.268 219.011 370.166 218.637C368.576 218.018 367.085 218.298 365.438 218.18C363.621 218.049 362.011 217.879 360.179 217.932L359.896 218.054C357.645 218.981 355.21 219.248 352.919 220.065C346.199 222.461 340.863 225.77 335.134 229.907C332.752 231.627 330.557 233.9 328.609 236.098C327.569 237.27 326.531 238.749 325.281 239.675L324.927 239.465C321.32 243.43 317.551 247.336 314.346 251.64C308.899 258.954 304.713 267.426 301.631 275.986C299.778 281.129 298.639 286.977 296.412 291.898L295.878 293.228C292.841 290.456 289.591 288.701 285.8 287.202C280.519 285.114 275.296 283.652 269.652 282.972C268.038 282.778 266.324 282.426 264.703 282.516C259.789 282.788 255.381 284.609 250.94 286.554ZM360.179 217.932C362.011 217.879 363.621 218.049 365.438 218.18C367.085 218.298 368.576 218.018 370.166 218.637C371.268 219.011 373.056 218.793 374.25 218.809C375.099 218.245 375.877 218.436 376.875 218.434C378.434 217.398 380.825 218.714 382.5 217.684C383.233 217.233 383.183 217.312 384 217.309C384.704 216.841 384.708 216.937 385.5 216.934L386.059 216.562L387.188 216.552C388.858 216.182 393.127 216.597 394.309 215.812L393.375 215.625L393.459 215.293C397.541 215.299 402.482 215.756 406.372 214.486C394.504 212.769 381.957 213.744 370.153 215.597C366.988 216.094 363.046 216.503 360.179 217.932Z"/>
	<path fill="#332B28" transform="scale(0.666667 0.666667)" d="M279.22 241.313L279.581 241.189C280.46 240.994 281.443 241.308 282.162 241.822C282.988 242.414 282.832 244.464 283.063 245.438C283.405 246.876 284.07 246.921 285.279 247.606L285.188 248.203L284.045 248.062C282.554 247.666 281.659 246.547 280.031 246.65C279.332 246.694 278.767 246.68 278.067 246.562L277.955 246.282C277.605 244.87 278.587 242.585 279.22 241.313Z"/>
	<path fill="#1684A0" fill-opacity="0.97254902" transform="scale(0.666667 0.666667)" d="M360.179 217.932C363.046 216.503 366.988 216.094 370.153 215.597C381.957 213.744 394.504 212.769 406.372 214.486C402.482 215.756 397.541 215.299 393.459 215.293L393.375 215.625L394.309 215.812C393.127 216.597 388.858 216.182 387.188 216.552L386.059 216.562L385.5 216.934C384.708 216.937 384.704 216.841 384 217.309C383.183 217.312 383.233 217.233 382.5 217.684C380.825 218.714 378.434 217.398 376.875 218.434C375.877 218.436 375.099 218.245 374.25 218.809C373.056 218.793 371.268 219.011 370.166 218.637C368.576 218.018 367.085 218.298 365.438 218.18C363.621 218.049 362.011 217.879 360.179 217.932Z"/>
	<path fill="#191408" transform="scale(0.666667 0.666667)" d="M251.281 518.135L251.728 517.825C255.111 515.437 257.687 512.175 260.834 509.518C269.87 501.892 281.823 497.186 293.714 499.084C303.137 500.589 311.237 505.237 318.832 510.802C322.605 513.567 326.262 516.466 330.703 518.096C337.004 520.41 344.582 520.575 351.237 521.216L372.547 523.515L390.943 526.431C394.249 525.639 398.384 526.1 401.785 526.168L410.535 526.048L420.938 526.452C428.151 526.534 435.432 526.178 442.622 526.805L443.158 526.847C443.143 533.54 443.714 540.87 442.937 547.483L442.451 633.391L452.617 638.382C450.772 639.252 448.516 639.235 446.506 639.446L434.338 640.434L435.655 640.901C434.986 641.47 434.327 641.755 433.5 642.024C430.138 643.117 426.553 643.479 423.134 644.367L394.753 652.026L312.143 674.055L310.312 673.691L309.73 673.235C309.116 672.869 308.449 672.948 307.8 673.113L307.113 673.301L306.281 672.386C305.753 672.192 305.523 672.116 304.954 672.22C303.311 672.519 302.878 671.633 301.399 671.464C300.158 671.322 298.904 671.961 297.67 671.767L281.812 669.375C280.316 669.098 278.832 669.138 277.345 668.885L272.812 668.25C269.89 667.697 266.651 668.162 263.844 667.558C262.911 667.357 261.936 667.26 260.98 667.236C259.378 667.196 257.877 666.885 256.307 666.568L255.944 664.772L253.298 664.375L247.057 664.977L249 664.403C249.812 663.479 249.736 662.063 249.889 660.847C250.364 659.856 250.258 658.281 250.327 657.156L250.489 644.103L250.491 605.047L250.764 559.92L250.385 536.345C250.318 532.298 250.177 528.313 250.383 524.264C250.489 522.171 250.505 520.109 251.281 518.135ZM390.943 526.431C394.895 527.561 400.197 528.34 402.484 532.119L402.527 533.062C400.711 534.893 397.71 535.424 395.25 535.856L381.652 537.709L353.698 541.186L346.595 542.069C345.373 542.228 343.982 542.226 342.876 542.792C344.191 544.346 345.875 543.939 347.71 544.636C345.749 544.866 343.611 544.824 341.972 545.945L340.987 546.483C349.121 547.682 357.44 548.002 365.635 548.645C391.406 550.667 417.315 552.178 442.937 547.483C443.714 540.87 443.143 533.54 443.158 526.847L442.622 526.805C435.432 526.178 428.151 526.534 420.938 526.452L410.535 526.048L401.785 526.168C398.384 526.1 394.249 525.639 390.943 526.431ZM340.987 546.483L341.972 545.945C343.611 544.824 345.749 544.866 347.71 544.636C345.875 543.939 344.191 544.346 342.876 542.792L326.237 544.852C331.06 545.925 336.063 546.152 340.987 546.483Z"/>
	<defs>
		<linearGradient id="gradient_1" gradientUnits="userSpaceOnUse" x1="401.50699" y1="517.15997" x2="391.07101" y2="557.66498">
			<stop offset="0" stop-color="white" stop-opacity="0.92941177"/>
			<stop offset="1" stop-color="white"/>
		</linearGradient>
	</defs>
	<path fill="url(#gradient_1)" transform="scale(0.666667 0.666667)" d="M390.943 526.431C394.249 525.639 398.384 526.1 401.785 526.168L410.535 526.048L420.938 526.452C428.151 526.534 435.432 526.178 442.622 526.805L443.158 526.847C443.143 533.54 443.714 540.87 442.937 547.483C417.315 552.178 391.406 550.667 365.635 548.645C357.44 548.002 349.121 547.682 340.987 546.483L341.972 545.945C343.611 544.824 345.749 544.866 347.71 544.636C345.875 543.939 344.191 544.346 342.876 542.792C343.982 542.226 345.373 542.228 346.595 542.069L353.698 541.186L381.652 537.709L395.25 535.856C397.71 535.424 400.711 534.893 402.527 533.062L402.484 532.119C400.197 528.34 394.895 527.561 390.943 526.431Z"/>
	<defs>
		<linearGradient id="gradient_2" gradientUnits="userSpaceOnUse" x1="340.51001" y1="679.16998" x2="348.11801" y2="628.23297">
			<stop offset="0" stop-color="#F5A035"/>
			<stop offset="1" stop-color="#FFC860"/>
		</linearGradient>
	</defs>
	<path fill="url(#gradient_2)" transform="scale(0.666667 0.666667)" d="M253.298 664.375L424.373 640.281C425.147 640.21 425.729 640.145 426.509 640.263C429.008 640.64 431.799 640.428 434.338 640.434L435.655 640.901C434.986 641.47 434.327 641.755 433.5 642.024C430.138 643.117 426.553 643.479 423.134 644.367L394.753 652.026L312.143 674.055L310.312 673.691L309.73 673.235C309.116 672.869 308.449 672.948 307.8 673.113L307.113 673.301L306.281 672.386C305.753 672.192 305.523 672.116 304.954 672.22C303.311 672.519 302.878 671.633 301.399 671.464C300.158 671.322 298.904 671.961 297.67 671.767L281.812 669.375C280.316 669.098 278.832 669.138 277.345 668.885L272.812 668.25C269.89 667.697 266.651 668.162 263.844 667.558C262.911 667.357 261.936 667.26 260.98 667.236C259.378 667.196 257.877 666.885 256.307 666.568L255.944 664.772L253.298 664.375Z"/>
	<path fill="#FF6401" transform="scale(0.666667 0.666667)" d="M491.22 152.705L528.61 125.399L528.775 671.247L467.233 644.53L456.704 640.04C455.523 639.538 453.858 638.566 452.617 638.382L442.451 633.391L442.937 547.483C443.714 540.87 443.143 533.54 443.158 526.847L443.955 515.625C444.613 503.634 443.937 491.352 443.936 479.324L444.039 432.89L443.887 413.571C443.8 411.516 444.068 409.222 443.334 407.281L443.275 406.964C443.715 402.853 443.375 398.326 443.372 394.173L443.567 287.676L443.579 221.358L443.391 184.024L491.22 152.705Z"/>
	<path fill="#191408" transform="scale(0.666667 0.666667)" d="M514.588 404.812C515.703 404.665 516.764 404.948 517.761 405.444C519.577 406.347 521.074 407.968 521.665 409.922C522.502 412.688 522.103 416.977 520.621 419.446C519.817 420.786 518.77 421.373 517.312 421.78C516.687 421.702 516.75 421.735 516.221 421.595C514.076 421.029 511.948 419.617 510.875 417.617C509.708 415.442 509.355 412.788 510.124 410.432C510.921 407.989 512.311 406.047 514.588 404.812Z"/>
	<path fill="#CC5D00" transform="scale(0.666667 0.666667)" d="M464.156 392.032L464.166 392.071L463.312 392.362C461.498 393.106 459.776 393.178 457.835 393.346L457.145 210.587C458.026 209.004 466.468 204.707 468.57 203.445L513.534 176.697C513.493 179.904 513.555 183.689 512.456 186.731L512.346 187.016C507.179 189.294 502.319 193.006 497.51 196.015L463.515 217.592L463.284 255.467L463.296 347.812L463.042 381.116C463.048 384.18 462.451 388.95 463.32 391.816L464.156 392.032Z"/>
	<path fill="#CC5D00" transform="scale(0.666667 0.666667)" d="M512.509 613.623C512.847 614.636 512.572 615.664 512.633 616.715L512.983 628.28L455.712 603.424L456.469 438.238L513.469 444.591L512.695 452.821L512.625 453.172L463.539 446.853L463.556 597.373L488.474 607.761C495.985 610.751 503.812 614.679 511.875 615.776C512.572 615.159 512.416 614.519 512.509 613.623Z"/>
	<path fill="#191408" transform="scale(0.666667 0.666667)" d="M512.509 613.623C512.416 614.519 512.572 615.159 511.875 615.776C503.812 614.679 495.985 610.751 488.474 607.761L463.556 597.373L463.539 446.853L512.625 453.172L512.512 570.228L512.491 593.598L512.273 607.086C512.284 609.225 512.094 611.53 512.509 613.623Z"/>
	<path fill="#191408" transform="scale(0.666667 0.666667)" d="M464.156 392.032L463.32 391.816C462.451 388.95 463.048 384.18 463.042 381.116L463.296 347.812L463.284 255.467L463.515 217.592L497.51 196.015C502.319 193.006 507.179 189.294 512.346 187.016L511.443 394.544L476.831 392.583C472.873 392.377 468.022 391.494 464.156 392.032Z"/>
	<defs>
		<linearGradient id="gradient_3" gradientUnits="userSpaceOnUse" x1="364.686" y1="383.013" x2="326.68799" y2="535.12598">
			<stop offset="0" stop-color="#BE5F02"/>
			<stop offset="1" stop-color="#FA8200"/>
		</linearGradient>
	</defs>
	<path fill="url(#gradient_3)" transform="scale(0.666667 0.666667)" d="M406.372 214.486C410.037 214.639 413.643 215.185 417.281 215.619C418.716 215.791 420.524 216.241 421.924 215.812L422.647 214.601C423.548 215.149 423.497 215.757 424.189 216.281C424.429 216.462 425.773 216.681 426.134 216.771L434.37 218.646C437.427 219.415 440.495 220.883 443.579 221.358L443.567 287.676L443.372 394.173C443.375 398.326 443.715 402.853 443.275 406.964L443.334 407.281C444.068 409.222 443.8 411.516 443.887 413.571L444.039 432.89L443.936 479.324C443.937 491.352 444.613 503.634 443.955 515.625L443.158 526.847L442.622 526.805C435.432 526.178 428.151 526.534 420.938 526.452L410.535 526.048L401.785 526.168C398.384 526.1 394.249 525.639 390.943 526.431L372.547 523.515L351.237 521.216C344.582 520.575 337.004 520.41 330.703 518.096C326.262 516.466 322.605 513.567 318.832 510.802C311.237 505.237 303.137 500.589 293.714 499.084C281.823 497.186 269.87 501.892 260.834 509.518C257.687 512.175 255.111 515.437 251.728 517.825L251.281 518.135C250.453 516.08 251.226 510.833 251.232 508.415L251.495 467.812L251.294 379.717C251.405 378.751 251.058 377.788 251.283 376.814C251.473 375.993 251.645 375.899 252.295 375.45C251.182 373.325 251.564 370.813 251.563 368.469L251.392 358.22L250.94 286.554C255.381 284.609 259.789 282.788 264.703 282.516C266.324 282.426 268.038 282.778 269.652 282.972C275.296 283.652 280.519 285.114 285.8 287.202C289.591 288.701 292.841 290.456 295.878 293.228L296.412 291.898C298.639 286.977 299.778 281.129 301.631 275.986C304.713 267.426 308.899 258.954 314.346 251.64C317.551 247.336 321.32 243.43 324.927 239.465L325.281 239.675C326.531 238.749 327.569 237.27 328.609 236.098C330.557 233.9 332.752 231.627 335.134 229.907C340.863 225.77 346.199 222.461 352.919 220.065C355.21 219.248 357.645 218.981 359.896 218.054L360.179 217.932C362.011 217.879 363.621 218.049 365.438 218.18C367.085 218.298 368.576 218.018 370.166 218.637C371.268 219.011 373.056 218.793 374.25 218.809C375.099 218.245 375.877 218.436 376.875 218.434C378.434 217.398 380.825 218.714 382.5 217.684C383.233 217.233 383.183 217.312 384 217.309C384.704 216.841 384.708 216.937 385.5 216.934L386.059 216.562L387.188 216.552C388.858 216.182 393.127 216.597 394.309 215.812L393.375 215.625L393.459 215.293C397.541 215.299 402.482 215.756 406.372 214.486ZM406.372 214.486C402.482 215.756 397.541 215.299 393.459 215.293L393.375 215.625L394.309 215.812C393.127 216.597 388.858 216.182 387.188 216.552L386.059 216.562L385.5 216.934C384.708 216.937 384.704 216.841 384 217.309C383.183 217.312 383.233 217.233 382.5 217.684C380.825 218.714 378.434 217.398 376.875 218.434C375.877 218.436 375.099 218.245 374.25 218.809C373.056 218.793 371.268 219.011 370.166 218.637C368.576 218.018 367.085 218.298 365.438 218.18C363.621 218.049 362.011 217.879 360.179 217.932L359.896 218.054C357.645 218.981 355.21 219.248 352.919 220.065C346.199 222.461 340.863 225.77 335.134 229.907C332.752 231.627 330.557 233.9 328.609 236.098C327.569 237.27 326.531 238.749 325.281 239.675L324.927 239.465C321.32 243.43 317.551 247.336 314.346 251.64C308.899 258.954 304.713 267.426 301.631 275.986C299.778 281.129 298.639 286.977 296.412 291.898L295.878 293.228L296.359 293.689C299.029 296.214 301.964 298.172 304.501 300.938C309.495 306.38 313.001 313.448 315.776 320.25C317.534 324.557 319.014 328.98 321.303 333.047C323.296 336.59 325.989 339.659 328.359 342.938C330.179 345.454 331.607 348.28 333.086 351.005L341.967 350.367C343.923 352.348 345.325 354.212 346.234 356.895L343.321 360.763C348.393 362.706 352.05 364.458 354.397 369.75C355.788 372.888 355.705 376.021 355.156 379.327C357.697 381.721 361.237 384.368 363.051 387.376C364.837 390.336 364.834 395.277 366.852 397.696C367.725 401.347 368.338 404.84 369.67 408.377C372.517 415.933 377.995 422.398 384.877 426.589C392.312 431.117 400.914 432.645 409.388 430.553C417.555 428.536 425.126 423.732 429.88 416.732L432.924 412.003C434.877 411.591 436.708 411.379 438.709 411.342C440.184 411.314 441.807 411.494 443.204 410.972C443.382 409.794 443.31 408.479 443.334 407.281L443.275 406.964C443.715 402.853 443.375 398.326 443.372 394.173L443.567 287.676L443.579 221.358C440.495 220.883 437.427 219.415 434.37 218.646L426.134 216.771C425.773 216.681 424.429 216.462 424.189 216.281C423.497 215.757 423.548 215.149 422.647 214.601L421.924 215.812C420.524 216.241 418.716 215.791 417.281 215.619C413.643 215.185 410.037 214.639 406.372 214.486Z"/>
	<path fill="#FFB700" transform="scale(0.666667 0.666667)" d="M349.122 373.178L349.56 373.497C349.593 374.417 349.519 375.452 349.84 376.315C350.19 377.256 349.827 378.583 349.514 379.502C348.903 381.302 348.366 384.894 346.617 385.874L345.24 386.543L345.008 386.657C344.636 386.532 344.49 386.833 344.196 387.074C342.397 388.542 335.282 387.539 332.575 387.526L278.431 387.739C270.031 387.763 261.65 388.374 253.271 387.599L252.782 386.812L253.312 386.243L300.403 385.897C303.679 386.458 307.714 386.031 311.066 386.038C317.137 386.049 324.519 386.804 330.453 385.538C334.068 384.767 338.158 384.651 341.625 383.628C343.067 382.54 343.725 381.32 344.565 379.774C345.734 379.089 346.856 378.39 347.836 377.444C349.213 376.113 349.126 375.038 349.122 373.178Z"/>
	<path fill="#FF6401" transform="scale(0.666667 0.666667)" d="M344.565 379.774C343.725 381.32 343.067 382.54 341.625 383.628C338.158 384.651 334.068 384.767 330.453 385.538C324.519 386.804 317.137 386.049 311.066 386.038C307.714 386.031 303.679 386.458 300.403 385.897C298.445 385.3 296.233 385.499 294.2 385.407L278.859 385.101C273.723 385.139 269.141 385.93 264.058 384.606C267.569 383.729 271.465 383.853 275.069 383.677C277.413 383.562 279.678 383.12 282 382.961C283.653 382.847 286.42 383.215 287.813 382.38C290.386 380.838 301.874 382.114 305.609 381.752L306.031 381.706C308.75 381.288 312.214 381.692 315.005 381.686C324.841 381.664 334.968 382.05 344.565 379.774Z"/>
	<path fill="#191408" transform="scale(0.666667 0.666667)" d="M303.375 350.554L301.199 350.131C302.229 349.003 306.846 348.112 308.349 348.022C312.727 347.759 319.383 348.658 323.5 350.207C325.455 350.943 328.025 352.604 330.041 352.807C331.118 352.915 331.724 352.663 332.445 351.875L333.086 351.005L341.967 350.367C343.923 352.348 345.325 354.212 346.234 356.895L343.321 360.763C348.393 362.706 352.05 364.458 354.397 369.75C355.788 372.888 355.705 376.021 355.156 379.327C353.765 382.065 352.494 384.747 350.289 386.943C348.652 387.09 346.642 387.506 345.034 387.183L345.008 386.657L345.24 386.543L346.617 385.874C348.366 384.894 348.903 381.302 349.514 379.502C349.827 378.583 350.19 377.256 349.84 376.315C349.519 375.452 349.593 374.417 349.56 373.497L349.122 373.178C349.126 375.038 349.213 376.113 347.836 377.444C346.856 378.39 345.734 379.089 344.565 379.774C334.968 382.05 324.841 381.664 315.005 381.686C312.214 381.692 308.75 381.288 306.031 381.706C301.951 381.05 297.294 381.429 293.157 381.393L279.069 381.019C269.982 380.987 260.222 381.578 251.294 379.717C251.405 378.751 251.058 377.788 251.283 376.814C251.473 375.993 251.645 375.899 252.295 375.45L253.461 374.625C253.643 373.658 253.75 372.513 254.322 371.688C254.844 370.937 256.025 370.418 256.907 370.174C262.623 368.594 268.713 369.294 274.495 368.125C275.061 367.049 275.286 365.875 275.812 364.788C276.472 363.428 278.751 362.353 280.107 361.912L281.812 364.233C282.654 365.099 284.059 365.013 285.188 365.068L285.763 364.074C287.74 360.571 287.204 356.038 290.384 353.029C292.064 351.439 297.128 348.803 299.438 349.535C300 349.714 300.565 350.414 301.125 350.559C301.699 350.707 302.751 350.555 303.375 350.554Z"/>
	<path fill="#FFCB03" transform="scale(0.666667 0.666667)" d="M303.375 350.554L301.199 350.131C302.229 349.003 306.846 348.112 308.349 348.022C312.727 347.759 319.383 348.658 323.5 350.207C325.455 350.943 328.025 352.604 330.041 352.807C331.118 352.915 331.724 352.663 332.445 351.875L333.086 351.005L341.967 350.367C343.923 352.348 345.325 354.212 346.234 356.895L343.321 360.763C348.393 362.706 352.05 364.458 354.397 369.75C355.788 372.888 355.705 376.021 355.156 379.327C353.765 382.065 352.494 384.747 350.289 386.943C348.652 387.09 346.642 387.506 345.034 387.183L345.008 386.657L345.24 386.543L346.617 385.874C348.366 384.894 348.903 381.302 349.514 379.502C349.827 378.583 350.19 377.256 349.84 376.315C349.519 375.452 349.593 374.417 349.56 373.497L349.122 373.178C348.402 371.69 347.929 370.606 346.561 369.631C342.901 368.594 338.904 367.855 335.24 369.235C333.111 370.036 330.91 370.394 328.688 369.743C327.475 368.571 326.808 367.747 326.718 366.011C326.686 365.391 326.734 365.088 326.387 364.533C325.97 363.867 323.728 363.553 322.991 363.102C321.65 362.283 320.277 359.668 319.059 358.477C315.375 354.874 308.376 354.067 303.464 353.017L307.034 349.634C306.042 349.494 304.357 350.257 303.375 350.554Z"/>
	<path fill="#FCFE7A" transform="scale(0.666667 0.666667)" d="M350.744 380.204L351.163 379.656C351.553 379.137 351.781 378.702 351.978 378.078C352.576 378.989 352.497 379.702 352.585 380.776L352.046 382.11C351.346 383.585 350.374 385.097 348.814 385.706L348.451 385.125C349.079 384.08 349.616 383.13 349.959 381.952C350.16 381.261 350.3 380.791 350.744 380.204Z"/>
	<path fill="#FDFE70" transform="scale(0.666667 0.666667)" d="M346.561 369.631L346.038 368.25L346.5 367.867C349.8 368.545 351.09 369.532 353.325 371.921C353.188 374.815 353.271 377.965 352.585 380.776C352.497 379.702 352.576 378.989 351.978 378.078C351.781 378.702 351.553 379.137 351.163 379.656L350.744 380.204C350.469 378.05 350.83 375.339 349.56 373.497L349.122 373.178C348.402 371.69 347.929 370.606 346.561 369.631Z"/>
	<defs>
		<linearGradient id="gradient_4" gradientUnits="userSpaceOnUse" x1="300.935" y1="293.112" x2="277.06699" y2="359.83301">
			<stop offset="0" stop-color="#843000"/>
			<stop offset="1" stop-color="#CA5600"/>
		</linearGradient>
	</defs>
	<path fill="url(#gradient_4)" transform="scale(0.666667 0.666667)" d="M250.94 286.554C255.381 284.609 259.789 282.788 264.703 282.516C266.324 282.426 268.038 282.778 269.652 282.972C275.296 283.652 280.519 285.114 285.8 287.202C289.591 288.701 292.841 290.456 295.878 293.228L296.359 293.689C299.029 296.214 301.964 298.172 304.501 300.938C309.495 306.38 313.001 313.448 315.776 320.25C317.534 324.557 319.014 328.98 321.303 333.047C323.296 336.59 325.989 339.659 328.359 342.938C330.179 345.454 331.607 348.28 333.086 351.005L332.445 351.875C331.724 352.663 331.118 352.915 330.041 352.807C328.025 352.604 325.455 350.943 323.5 350.207C319.383 348.658 312.727 347.759 308.349 348.022C306.846 348.112 302.229 349.003 301.199 350.131L303.375 350.554C302.751 350.555 301.699 350.707 301.125 350.559C300.565 350.414 300 349.714 299.438 349.535C297.128 348.803 292.064 351.439 290.384 353.029C287.204 356.038 287.74 360.571 285.763 364.074L285.188 365.068C284.059 365.013 282.654 365.099 281.812 364.233L280.107 361.912C278.751 362.353 276.472 363.428 275.812 364.788C275.286 365.875 275.061 367.049 274.495 368.125C268.713 369.294 262.623 368.594 256.907 370.174C256.025 370.418 254.844 370.937 254.322 371.688C253.75 372.513 253.643 373.658 253.461 374.625L252.295 375.45C251.182 373.325 251.564 370.813 251.563 368.469L251.392 358.22L250.94 286.554Z"/>
	<path fill="#CC5D00" transform="scale(0.666667 0.666667)" d="M251.392 358.22L251.591 357.494C251.777 356.805 251.841 356.175 251.944 355.474L252.065 354.839C252.278 353.663 252.23 352.402 252.243 351.209L254.089 350.884L254.632 351.662C255.761 351.836 254.975 351.759 255.938 351.765C256.888 351.771 257.069 351.941 257.813 352.475C258.902 353.257 260.53 353.759 261.78 354.293C265.543 355.9 269.359 357.106 273.302 358.102L274.666 358.701C275.765 359.075 276.533 359.143 277.5 359.92C278.238 359.935 279.071 359.753 279.619 360.254C280.822 361.354 281.796 361.441 283.35 361.383L283.895 361.763C284.699 361.423 285.433 361.291 285.941 360.562C286.06 361.288 286.1 360.919 285.904 361.443C285.529 362.444 285.564 363.022 285.763 364.074L285.188 365.068C284.059 365.013 282.654 365.099 281.812 364.233L280.107 361.912C278.751 362.353 276.472 363.428 275.812 364.788C275.286 365.875 275.061 367.049 274.495 368.125C268.713 369.294 262.623 368.594 256.907 370.174C256.025 370.418 254.844 370.937 254.322 371.688C253.75 372.513 253.643 373.658 253.461 374.625L252.295 375.45C251.182 373.325 251.564 370.813 251.563 368.469L251.392 358.22Z"/>
	<path fill="#1986A0" transform="scale(0.666667 0.666667)" d="M406.372 214.486C410.037 214.639 413.643 215.185 417.281 215.619C418.716 215.791 420.524 216.241 421.924 215.812L422.647 214.601C423.548 215.149 423.497 215.757 424.189 216.281C424.429 216.462 425.773 216.681 426.134 216.771L434.37 218.646C437.427 219.415 440.495 220.883 443.579 221.358L443.567 287.676L443.372 394.173C443.375 398.326 443.715 402.853 443.275 406.964L443.334 407.281C443.31 408.479 443.382 409.794 443.204 410.972C441.807 411.494 440.184 411.314 438.709 411.342C436.708 411.379 434.877 411.591 432.924 412.003L429.88 416.732C425.126 423.732 417.555 428.536 409.388 430.553C400.914 432.645 392.312 431.117 384.877 426.589C377.995 422.398 372.517 415.933 369.67 408.377C368.338 404.84 367.725 401.347 366.852 397.696C364.834 395.277 364.837 390.336 363.051 387.376C361.237 384.368 357.697 381.721 355.156 379.327C355.705 376.021 355.788 372.888 354.397 369.75C352.05 364.458 348.393 362.706 343.321 360.763L346.234 356.895C345.325 354.212 343.923 352.348 341.967 350.367L333.086 351.005C331.607 348.28 330.179 345.454 328.359 342.938C325.989 339.659 323.296 336.59 321.303 333.047C319.014 328.98 317.534 324.557 315.776 320.25C313.001 313.448 309.495 306.38 304.501 300.938C301.964 298.172 299.029 296.214 296.359 293.689L295.878 293.228L296.412 291.898C298.639 286.977 299.778 281.129 301.631 275.986C304.713 267.426 308.899 258.954 314.346 251.64C317.551 247.336 321.32 243.43 324.927 239.465L325.281 239.675C326.531 238.749 327.569 237.27 328.609 236.098C330.557 233.9 332.752 231.627 335.134 229.907C340.863 225.77 346.199 222.461 352.919 220.065C355.21 219.248 357.645 218.981 359.896 218.054L360.179 217.932C362.011 217.879 363.621 218.049 365.438 218.18C367.085 218.298 368.576 218.018 370.166 218.637C371.268 219.011 373.056 218.793 374.25 218.809C375.099 218.245 375.877 218.436 376.875 218.434C378.434 217.398 380.825 218.714 382.5 217.684C383.233 217.233 383.183 217.312 384 217.309C384.704 216.841 384.708 216.937 385.5 216.934L386.059 216.562L387.188 216.552C388.858 216.182 393.127 216.597 394.309 215.812L393.375 215.625L393.459 215.293C397.541 215.299 402.482 215.756 406.372 214.486ZM436.292 373.762C436.903 374.467 437.895 375.404 438.218 376.279C439.211 378.969 437.972 381.73 440.396 384.134C441.047 386.831 440.177 389.636 438.744 391.96L438.56 392.25C437.828 392.828 437.462 393.976 437.315 394.875C437.1 396.195 438.083 397.746 437.623 398.906L436.941 398.955C436.193 399.014 436.447 398.91 436.084 399.093C435.484 403.638 434.72 407.765 432.924 412.003C434.877 411.591 436.708 411.379 438.709 411.342C440.184 411.314 441.807 411.494 443.204 410.972C443.382 409.794 443.31 408.479 443.334 407.281L443.275 406.964C443.715 402.853 443.375 398.326 443.372 394.173L443.567 287.676L442.992 268.688L442.502 268.594C442.118 269.952 442.297 271.59 442.298 273.013L442.312 282.191C441.869 280.853 442.099 278.959 442.096 277.52L442.086 267.458L441.934 267.562L440.954 286.019L440.52 324.188C440.442 332.255 440.469 340.053 439.785 348.11C439.666 349.51 440.045 351.778 439.316 352.875C439.316 353.912 439.106 354.809 439.691 355.688L439.688 359.441L439.127 359.627L438.986 360.143C438.68 361.061 438.214 361.357 437.441 361.875L437.252 362.344L437.064 362.707C436.713 363.409 436.6 363.923 436.81 364.686L436.946 365.021C437.202 365.774 437.081 366.71 437.062 367.5L436.691 367.875L436.688 372.375L435.941 372.562L436.108 372.982C436.313 373.517 436.27 373.294 436.292 373.762ZM360.179 217.932L359.896 218.054C357.645 218.981 355.21 219.248 352.919 220.065C346.199 222.461 340.863 225.77 335.134 229.907C332.752 231.627 330.557 233.9 328.609 236.098C327.569 237.27 326.531 238.749 325.281 239.675L325.111 240.75C326.031 240.885 326.724 239.954 327.414 239.352C331.097 236.142 334.526 232.536 338.574 229.773C342.269 227.25 347.095 225.234 351.188 223.434C354.079 222.163 357.095 222.198 360.126 221.432C363.573 220.562 366.588 219.117 370.166 218.637C368.576 218.018 367.085 218.298 365.438 218.18C363.621 218.049 362.011 217.879 360.179 217.932ZM436.292 373.762L436.383 374.109C436.591 374.886 436.755 375.444 437.158 376.148C437.753 377.188 437.477 379.074 437.438 380.25L436.691 380.438L436.594 382.031L436.127 381.469L435.553 382.6C435.297 383.11 435.384 382.944 435.191 383.625L435.566 384.188L435.375 384.562L434.742 383.812L434.868 384.232C435.108 385.267 435.131 386.483 435.066 387.545C435.845 391.36 436.17 395.203 436.084 399.093C436.447 398.91 436.193 399.014 436.941 398.955L437.623 398.906C438.083 397.746 437.1 396.195 437.315 394.875C437.462 393.976 437.828 392.828 438.56 392.25L438.744 391.96C440.177 389.636 441.047 386.831 440.396 384.134C437.972 381.73 439.211 378.969 438.218 376.279C437.895 375.404 436.903 374.467 436.292 373.762Z"/>
	<defs>
		<linearGradient id="gradient_5" gradientUnits="userSpaceOnUse" x1="439.383" y1="386.13599" x2="437.16901" y2="385.43201">
			<stop offset="0" stop-color="#16859E" stop-opacity="0.79607844"/>
			<stop offset="1" stop-color="#17859E" stop-opacity="0.8392157"/>
		</linearGradient>
	</defs>
	<path fill="url(#gradient_5)" transform="scale(0.666667 0.666667)" d="M436.292 373.762C436.903 374.467 437.895 375.404 438.218 376.279C439.211 378.969 437.972 381.73 440.396 384.134C441.047 386.831 440.177 389.636 438.744 391.96L438.56 392.25C437.828 392.828 437.462 393.976 437.315 394.875C437.1 396.195 438.083 397.746 437.623 398.906L436.941 398.955C436.193 399.014 436.447 398.91 436.084 399.093C436.17 395.203 435.845 391.36 435.066 387.545C435.131 386.483 435.108 385.267 434.868 384.232L434.742 383.812L435.375 384.562L435.566 384.188L435.191 383.625C435.384 382.944 435.297 383.11 435.553 382.6L436.127 381.469L436.594 382.031L436.691 380.438L437.438 380.25C437.477 379.074 437.753 377.188 437.158 376.148C436.755 375.444 436.591 374.886 436.383 374.109L436.292 373.762Z"/>
	<path fill="#1684A0" fill-opacity="0.78823531" transform="scale(0.666667 0.666667)" d="M436.292 373.762C436.27 373.294 436.313 373.517 436.108 372.982L435.941 372.562L436.688 372.375L436.691 367.875L437.062 367.5C437.081 366.71 437.202 365.774 436.946 365.021L436.81 364.686C436.6 363.923 436.713 363.409 437.064 362.707L437.252 362.344L437.441 361.875C438.214 361.357 438.68 361.061 438.986 360.143L439.127 359.627L439.688 359.441L439.691 355.688C439.106 354.809 439.316 353.912 439.316 352.875C440.045 351.778 439.666 349.51 439.785 348.11C440.469 340.053 440.442 332.255 440.52 324.188L440.954 286.019L441.934 267.562L442.086 267.458L442.096 277.52C442.099 278.959 441.869 280.853 442.312 282.191L442.298 273.013C442.297 271.59 442.118 269.952 442.502 268.594L442.992 268.688L443.567 287.676L443.372 394.173C443.375 398.326 443.715 402.853 443.275 406.964L443.334 407.281C443.31 408.479 443.382 409.794 443.204 410.972C441.807 411.494 440.184 411.314 438.709 411.342C436.708 411.379 434.877 411.591 432.924 412.003C434.72 407.765 435.484 403.638 436.084 399.093C436.447 398.91 436.193 399.014 436.941 398.955L437.623 398.906C438.083 397.746 437.1 396.195 437.315 394.875C437.462 393.976 437.828 392.828 438.56 392.25L438.744 391.96C440.177 389.636 441.047 386.831 440.396 384.134C437.972 381.73 439.211 378.969 438.218 376.279C437.895 375.404 436.903 374.467 436.292 373.762ZM438.56 392.25C437.828 392.828 437.462 393.976 437.315 394.875C437.1 396.195 438.083 397.746 437.623 398.906L436.941 398.955C436.193 399.014 436.447 398.91 436.084 399.093C435.484 403.638 434.72 407.765 432.924 412.003C434.877 411.591 436.708 411.379 438.709 411.342C440.184 411.314 441.807 411.494 443.204 410.972C443.382 409.794 443.31 408.479 443.334 407.281L443.275 406.964C443.012 406.072 442.951 405.192 442.853 404.271C443.316 402.572 442.976 400.163 442.996 398.378C443.072 391.748 443.218 384.985 442.718 378.375L442.377 379.123L441.657 380.082C441.325 380.704 441.397 381.188 441.552 381.843C442.419 385.489 442.469 387.947 440.715 391.312C440.333 392.046 440.143 392.537 439.321 392.8L438.56 392.25ZM440.396 384.134C441.047 386.831 440.177 389.636 438.744 391.96L438.56 392.25L439.321 392.8C440.143 392.537 440.333 392.046 440.715 391.312C442.469 387.947 442.419 385.489 441.552 381.843C441.397 381.188 441.325 380.704 441.657 380.082L442.377 379.123L442.718 378.375C443.218 384.985 443.072 391.748 442.996 398.378C442.976 400.163 443.316 402.572 442.853 404.271C442.951 405.192 443.012 406.072 443.275 406.964C443.715 402.853 443.375 398.326 443.372 394.173L442.66 359.564C442.341 360.46 442.04 361.238 441.971 362.191C441.914 362.984 441.994 362.604 441.852 363.306L441.566 364.688C440.919 365.335 440.903 365.592 439.961 365.711C440.217 364.865 440.427 364.125 440.511 363.24C437.191 367.007 439.852 370.224 440.208 374.359C440.294 375.349 440.016 376.467 439.829 377.438C439.638 378.432 439.382 379.286 439.66 380.289C440.013 381.56 440.193 382.831 440.396 384.134Z"/>
	<path fill="#1986A0" fill-opacity="0.69411767" transform="scale(0.666667 0.666667)" d="M440.396 384.134C440.193 382.831 440.013 381.56 439.66 380.289C439.382 379.286 439.638 378.432 439.829 377.438C440.016 376.467 440.294 375.349 440.208 374.359C439.852 370.224 437.191 367.007 440.511 363.24C440.427 364.125 440.217 364.865 439.961 365.711C440.903 365.592 440.919 365.335 441.566 364.688L441.852 363.306C441.994 362.604 441.914 362.984 441.971 362.191C442.04 361.238 442.341 360.46 442.66 359.564L443.372 394.173C443.375 398.326 443.715 402.853 443.275 406.964C443.012 406.072 442.951 405.192 442.853 404.271C443.316 402.572 442.976 400.163 442.996 398.378C443.072 391.748 443.218 384.985 442.718 378.375L442.377 379.123L441.657 380.082C441.325 380.704 441.397 381.188 441.552 381.843C442.419 385.489 442.469 387.947 440.715 391.312C440.333 392.046 440.143 392.537 439.321 392.8L438.56 392.25L438.744 391.96C440.177 389.636 441.047 386.831 440.396 384.134Z"/>
	<defs>
		<linearGradient id="gradient_6" gradientUnits="userSpaceOnUse" x1="441.56299" y1="396.936" x2="437.91901" y2="397.77899">
			<stop offset="0" stop-color="#15859C" stop-opacity="0.65882355"/>
			<stop offset="1" stop-color="#16869E" stop-opacity="0.73725492"/>
		</linearGradient>
	</defs>
	<path fill="url(#gradient_6)" transform="scale(0.666667 0.666667)" d="M438.56 392.25L439.321 392.8C440.143 392.537 440.333 392.046 440.715 391.312C442.469 387.947 442.419 385.489 441.552 381.843C441.397 381.188 441.325 380.704 441.657 380.082L442.377 379.123L442.718 378.375C443.218 384.985 443.072 391.748 442.996 398.378C442.976 400.163 443.316 402.572 442.853 404.271C442.951 405.192 443.012 406.072 443.275 406.964L443.334 407.281C443.31 408.479 443.382 409.794 443.204 410.972C441.807 411.494 440.184 411.314 438.709 411.342C436.708 411.379 434.877 411.591 432.924 412.003C434.72 407.765 435.484 403.638 436.084 399.093C436.447 398.91 436.193 399.014 436.941 398.955L437.623 398.906C438.083 397.746 437.1 396.195 437.315 394.875C437.462 393.976 437.828 392.828 438.56 392.25ZM442.853 404.271C442.477 404.521 441.776 405.141 441.375 405.254C440.377 405.535 437.562 404.625 437.039 404.9C436.406 405.233 435.248 408.667 435.111 409.352L435.051 409.688C437.812 411.526 439.995 411.115 443.204 410.972C443.382 409.794 443.31 408.479 443.334 407.281L443.275 406.964C443.012 406.072 442.951 405.192 442.853 404.271Z"/>
	<path fill="#FDFE70" transform="scale(0.666667 0.666667)" d="M366.852 397.696C367.562 395.777 367.326 393.391 367.562 391.355C367.983 387.723 369.183 383.865 370.769 380.577C374.716 372.394 382.162 365.8 390.729 362.813C399.121 359.888 407.776 359.952 415.844 363.915C426.004 368.904 431.504 377.067 435.066 387.545C435.845 391.36 436.17 395.203 436.084 399.093C435.484 403.638 434.72 407.765 432.924 412.003L429.88 416.732C425.126 423.732 417.555 428.536 409.388 430.553C400.914 432.645 392.312 431.117 384.877 426.589C377.995 422.398 372.517 415.933 369.67 408.377C368.338 404.84 367.725 401.347 366.852 397.696Z"/>
</svg>
