<?xml version="1.0" encoding="utf-8" ?>
<svg xmlns="http://www.w3.org/2000/svg" xmlns:xlink="http://www.w3.org/1999/xlink" width="512" height="512">
	<path fill="#191308" transform="scale(0.666667 0.666667)" d="M297.688 74.0653C309.831 67.8901 324.066 64.916 337.334 62.4507C347.043 60.6466 357.03 58.3572 366.833 57.3098C374.398 56.5015 382.04 56.7069 389.625 57.0017C403.883 57.5559 417.701 59.0896 431.647 62.1996C456.087 66.2724 479.683 74.3124 501.455 86.1235C520.842 96.6408 538.847 110.573 551.809 128.63L555.473 133.908L576.654 166.439C582.799 178.431 587.422 191.659 590.511 204.76L594.302 216.434C597.059 225.817 599.022 235.984 599.822 245.72L601.827 265.218L604.091 276.653C604.677 279.36 605.523 282.203 605.755 284.952C607.16 291.909 607.526 298.862 607.525 305.945C607.805 311.06 608.51 316.298 608.567 321.401C608.714 334.665 605.335 349.88 596.247 359.955C588.976 368.017 580.338 371.277 569.692 371.915C576.37 375.711 579.477 380.715 581.481 388.052C584.955 400.774 581.858 415.301 575.438 426.601L573.655 429.508C568.759 437.995 565.278 447.158 560.131 455.51C547.981 475.228 530.306 493.316 511.215 506.38C500.561 513.67 488.781 519.751 477 525.013C461.932 531.744 446.122 538.783 434.512 550.854C426.001 559.704 419.655 570.582 416.887 582.62C415.23 589.825 415.08 596.907 415.219 604.252L355.822 604.266C355.863 599.984 356.021 595.596 355.56 591.335C354.705 583.43 352.303 575.472 348.99 568.265C345.216 560.055 339.622 552.201 334.088 545.09C326.018 534.72 317.097 525.008 308.18 515.364C303.15 509.924 298.29 503.988 292.409 499.452C286.968 495.256 281.481 492.961 275.098 490.591C241.438 478.095 216.311 450.977 193.881 424.015L172.819 398.915L160.653 384.431C155.098 377.928 149.231 370.965 145.68 363.119C141.741 354.417 141.069 345.904 140.925 336.489C140.848 331.439 140.872 326.358 142.125 321.429C144.534 311.951 149.794 302.819 154.762 294.462L163.098 280.223L184.517 244.169C193.443 229.538 203.223 214.642 209.775 198.745C210.79 196.284 212.31 193.188 212.624 190.564C213.007 187.368 212.168 184.041 211.513 180.938C210.823 177.665 210.253 174.427 209.931 171.093C209.667 168.365 209.477 165.843 210.491 163.231L210.686 162.75L211.085 161.743C212.918 157.401 215.857 153.594 218.599 149.812L226.433 138.797C237.159 123.982 248.318 108.429 261.966 96.1484C268.232 90.5096 275.323 85.9553 282.613 81.7761C287.516 78.9649 292.444 76.2061 297.688 74.0653ZM278.661 336.373C278.158 334.217 275.309 332.267 273.681 330.852C269.922 329.409 265.006 328.506 261.117 330.104C258.506 331.176 256.812 333.004 255.785 335.625C254.623 338.594 254.952 341.544 256.332 344.391C258.202 348.251 262.153 351.775 266.224 353.103C269.285 354.101 272.974 353.877 275.811 352.381C278.419 351.006 280.77 348.262 281.524 345.404C282.087 343.272 282.199 341.069 280.998 339.127C280.373 338.118 279.472 337.233 278.661 336.373Z"/>
	<path fill="#FCFAF0" fill-opacity="0.87450981" transform="scale(0.666667 0.666667)" d="M278.661 336.373C279.472 337.233 280.373 338.118 280.998 339.127C282.199 341.069 282.087 343.272 281.524 345.404C280.77 348.262 278.419 351.006 275.811 352.381C272.974 353.877 269.285 354.101 266.224 353.103C262.153 351.775 258.202 348.251 256.332 344.391C254.952 341.544 254.623 338.594 255.785 335.625C256.812 333.004 258.506 331.176 261.117 330.104C265.006 328.506 269.922 329.409 273.681 330.852C275.309 332.267 278.158 334.217 278.661 336.373Z"/>
	<path fill="#FF6201" transform="scale(0.666667 0.666667)" d="M322.322 330.348C322.387 330.329 322.545 329.748 322.606 329.562C323.052 328.209 323.383 326.753 324.296 325.634L335.397 332.014C336.386 332.65 338.204 333.67 338.922 334.561C339.164 334.861 339.36 335.68 339.512 336.067C335.789 341.812 332.713 348.19 330.26 354.579C329.714 356.001 328.753 357.996 328.589 359.492C326.137 365.688 325.064 372.583 323.826 379.111L322.51 396.841C320.761 393.471 320.653 390.062 320.178 386.358C318.47 373.024 319.264 360.613 320.41 347.273C320.897 341.598 321.173 335.946 322.322 330.348Z"/>
	<path fill="#5C0435" transform="scale(0.666667 0.666667)" d="M306.913 286.514C312.276 286.473 317.052 287.284 322.289 288.324C324.976 288.857 326.711 290.636 328.875 292.181C330.97 293.676 333.232 294.972 335.255 296.561C331.365 304.145 328.556 312.023 325.908 320.097C325.351 321.793 324.243 323.858 324.296 325.634C323.383 326.753 323.052 328.209 322.606 329.562C322.545 329.748 322.387 330.329 322.322 330.348C321.812 330.166 322.118 330.244 321.387 330.188C319.928 332.331 319.399 334.685 318.8 337.164C316.713 332.523 314.198 328.305 311.091 324.275L307.528 319.752C307.202 319.347 306.303 318.504 306.174 318.096C305.815 316.961 306.963 312.975 307.183 311.625C307.689 308.517 308.077 305.275 308.239 302.133C308.52 296.686 307.819 291.845 306.913 286.514Z"/>
	<path fill="#821ABE" transform="scale(0.666667 0.666667)" d="M495.728 326.572C506.538 327.119 514.533 329.095 522.328 336.904L522.036 337.111C519.129 339.115 515.829 340.504 512.844 342.397C503.784 348.141 495.574 355.324 488.472 363.351C485.502 362.498 482.655 361.013 479.793 359.847C476.547 358.525 473.087 357.542 470.124 355.646C473.258 351.076 476.201 346.336 479.653 341.996C484.225 336.248 489.816 330.926 495.728 326.572Z"/>
	<path fill="#BB3608" transform="scale(0.666667 0.666667)" d="M497.475 369.11L502.948 369.056C507.017 369.356 509.822 372.954 512.344 375.782C510.059 379.597 507.905 383.71 505.147 387.206C499.722 394.08 489.941 400.368 481.73 403.356C478.31 403.875 474.384 404.009 471.375 401.99C469.336 400.622 468.193 398.699 467.785 396.291C467.154 392.567 468.545 388.639 470.695 385.625C472.761 382.73 475.614 380.428 478.417 378.287C484.452 373.678 489.944 370.451 497.475 369.11Z"/>
	<path fill="#147741" transform="scale(0.666667 0.666667)" d="M255.693 295.942L256.005 295.929C257.566 295.704 259.511 294.425 261.188 293.966L261.631 293.841C266.133 292.624 271.072 294.212 274.98 296.498C282.646 300.983 285.824 309.474 287.891 317.629C289.05 322.206 290.335 329.592 287.77 333.888C287.023 335.139 285.488 335.967 284.084 336.211C282.535 336.48 279.888 335.608 278.661 336.373C278.158 334.217 275.309 332.267 273.681 330.852C273.549 330.252 273.67 330.428 273.066 329.926C270.111 327.474 264.941 327.671 261.418 328.379C257.197 329.227 255.296 331.648 253.07 335.022C251.919 334.619 250.671 333.192 249.736 332.387L241.736 325.312L241.755 322.106C241.357 319.845 242.609 315.634 243.282 313.422C245.151 307.277 249.871 299.037 255.693 295.942Z"/>
	<path fill="#FF6201" transform="scale(0.666667 0.666667)" d="M566.708 371.814L569.692 371.915C576.37 375.711 579.477 380.715 581.481 388.052C584.955 400.774 581.858 415.301 575.438 426.601L573.655 429.508C571.633 431.415 569.613 433.428 567.325 435.013C563.592 437.6 559.246 439.026 554.857 440.064C545.345 442.312 534.639 442.694 525.027 440.871C513.757 438.734 500.797 432.182 494.19 422.541C495.455 421.369 496.636 420.413 498.311 419.901C503.773 418.234 510.379 424.898 514.936 427.353C522.509 431.433 532.628 431.702 540.765 429.239C548.454 426.913 554.717 421.101 558.457 414.091C562.39 406.721 563.628 397.26 561.045 389.25C558.604 381.682 552.374 376.153 545.44 372.694C552.768 372.975 559.438 372.784 566.708 371.814Z"/>
	<path fill="#1985A1" transform="scale(0.666667 0.666667)" d="M599.822 245.72L601.827 265.218L604.091 276.653C604.677 279.36 605.523 282.203 605.755 284.952C607.16 291.909 607.526 298.862 607.525 305.945C607.805 311.06 608.51 316.298 608.567 321.401C608.714 334.665 605.335 349.88 596.247 359.955C588.976 368.017 580.338 371.277 569.692 371.915L566.708 371.814C561.791 371.503 556.756 372.462 551.812 372.346C546.987 372.233 542.384 371.345 537.607 370.932C529.689 370.247 520.673 370.784 513.43 374.347L512.836 374.643C511.137 372.638 509.154 370.258 506.772 369.062L503.169 367.3C513.679 351.703 531.747 351.853 548.292 348.781C562.537 346.135 575.21 341.545 585.247 330.621C597.138 317.678 600.41 299.74 599.67 282.758L596.347 261.07L599.822 245.72Z"/>
	<path fill="#6987BD" transform="scale(0.666667 0.666667)" d="M599.822 245.72L601.827 265.218L604.091 276.653C604.677 279.36 605.523 282.203 605.755 284.952C607.16 291.909 607.526 298.862 607.525 305.945L606.389 304.204C604.907 301.71 605.901 300.056 605.476 297.492C605.257 296.171 604.706 295.394 605.066 294L605.438 293.625C605.487 292.447 605.07 290.449 604.691 289.312C604.521 288.801 604.418 288.511 604.359 287.952L604.316 287.438L603.121 287.129C602.471 287.646 602.112 287.971 601.871 288.769L601.689 289.415C601.124 287.483 601.508 286.019 601.192 284.217C600.945 282.811 600.977 281.364 600.941 279.938C600.085 278.653 600.94 276.855 600.445 275.408L600.31 275.061L600.191 273.938C599.9 272.828 599.775 272.313 599.816 271.125C600.418 270.517 600.341 268.994 600.283 268.125L600.191 264.75L600.562 264.375L599.815 260.127C598.683 260.068 598.484 260.081 597.48 260.595C597.618 262.69 596.975 264.313 598.148 266.145C598.191 267.261 598.277 268.027 598.679 269.065C598.85 269.508 598.937 269.782 598.913 270.263C598.826 271.948 599.463 273.148 599.667 274.778C599.854 276.277 599.568 278.673 600.155 279.947L600.323 280.262C600.697 281.387 600.202 281.806 599.67 282.758L596.347 261.07L599.822 245.72Z"/>
	<path fill="#90A3CF" transform="scale(0.666667 0.666667)" d="M605.755 284.952C605.1 284.768 604.832 284.613 604.292 284.162L603.75 283.691L603.188 283.316C601.464 281.662 600.61 268.366 601.166 265.5L601.827 265.218L604.091 276.653C604.677 279.36 605.523 282.203 605.755 284.952Z"/>
	<path fill="#FF6201" transform="scale(0.666667 0.666667)" d="M590.511 204.76L594.302 216.434C597.059 225.817 599.022 235.984 599.822 245.72L596.347 261.07C588.814 278.773 577.809 296.22 563.45 309.221C551.091 320.41 536.821 328.841 522.328 336.904C514.533 329.095 506.538 327.119 495.728 326.572C507.372 317.036 519.965 309.241 532.261 300.66C541.525 294.195 550.539 286.929 558.171 278.564C568.682 267.044 576.738 253.397 582.251 238.829C585.337 232.634 587.414 224.84 588.756 218.067C589.232 215.666 589.613 213.217 589.839 210.779C590.011 208.927 589.586 206.388 590.511 204.76Z"/>
	<path fill="#3626A7" transform="scale(0.666667 0.666667)" d="M241.755 322.106C241.658 323.102 241.785 324.082 241.125 324.855C230.844 317.928 222.426 308.924 218.718 296.812C215.002 284.677 216.667 270.975 222.734 259.875C228.473 249.374 237.055 242.052 248.635 238.813C259.024 235.907 270.808 237.624 280.121 243.016C292.314 250.076 298.583 262.804 302.008 276.027C304.964 287.443 305.796 298.846 303.623 310.497C303.21 312.71 302.947 315.333 301.801 317.285C299.535 315.006 296.927 313.424 294.358 311.53L286.95 305.562L286.899 305.465C283.2 299.618 277.728 294.315 270.712 292.861L270.188 292.759C267.408 292.198 264.411 292.306 261.701 293.139L261.003 293.358C259.204 293.894 257.093 294.643 255.693 295.942C249.871 299.037 245.151 307.277 243.282 313.422C242.609 315.634 241.357 319.845 241.755 322.106Z"/>
	<path fill="#FF6201" transform="scale(0.666667 0.666667)" d="M259.517 188.054C257.502 180.222 256.521 172.817 256.909 164.723C257.817 145.793 267.43 129.014 281.253 116.435C303.581 96.1167 333.622 86.9995 363.504 88.5643C386.942 89.7917 412.336 97.5848 431.941 110.6C435.133 112.719 438.711 115.038 441.276 117.885C437.71 121.583 432.845 124.438 428.486 127.146C426.285 128.513 423.963 129.757 422.089 131.567L421.789 131.459C419.031 130.425 416.449 128.812 413.812 127.498C410.474 125.834 407.005 124.36 403.5 123.086C379.226 114.263 352.836 115.264 329.27 125.725C311.402 133.656 297.329 145.8 283.768 159.611C275.011 168.53 266.769 177.861 259.517 188.054Z"/>
	<path fill="#5C0435" transform="scale(0.666667 0.666667)" d="M259.517 188.054C266.769 177.861 275.011 168.53 283.768 159.611C297.329 145.8 311.402 133.656 329.27 125.725C352.836 115.264 379.226 114.263 403.5 123.086C407.005 124.36 410.474 125.834 413.812 127.498C416.449 128.812 419.031 130.425 421.789 131.459L422.089 131.567C427.145 135.265 432.166 140.351 435.365 145.758C429.959 145.667 424.542 146.556 419.19 147.223C408.623 148.54 397.872 150.402 387.645 153.399C380.241 155.57 373.037 158.553 365.916 161.505C349.423 168.343 333.825 177.064 320.891 189.512C309.845 200.143 300.586 211.476 294.121 225.451C291.36 231.418 289.105 237.744 288.308 244.285C283.968 239.556 280.682 232.283 277.551 226.655C272.408 217.413 266.986 208.462 262.898 198.675C261.507 195.346 259.904 191.665 259.517 188.054Z"/>
	<path fill="#BB3608" transform="scale(0.666667 0.666667)" d="M286.95 305.562L294.358 311.53C296.927 313.424 299.535 315.006 301.801 317.285C302.591 319.234 302.803 321.304 303.144 323.366C304.211 329.824 304.159 336.378 304.74 342.881C306.495 362.497 311.193 381.235 319.461 399.131C321.232 402.965 323.302 407.585 325.981 410.858L326.399 410.558L326.737 411.071C328.277 413.449 329.438 415.989 331.111 418.312C338.611 428.728 349.725 435.721 362.194 438.515C369.52 440.157 377.437 440.611 384.851 439.277C395.894 437.291 405.686 432.255 412.303 422.962C414.614 419.717 416.08 416.216 417.54 412.535L418.353 412.688C422.375 411.153 425.792 410.288 429.06 407.338C435.668 401.373 439.126 392.859 444.546 385.903C448.092 381.353 452.607 377.416 456.462 373.109C461.369 367.626 465.741 361.552 470.124 355.646C473.087 357.542 476.547 358.525 479.793 359.847C482.655 361.013 485.502 362.498 488.472 363.351C483.632 368.92 478.006 373.25 472.741 378.339C467.483 383.422 463.468 389.219 459.309 395.187C457.167 398.259 454.763 401.386 453.146 404.77C452.017 407.133 451.118 409.741 452.006 412.312C454.497 414.326 457.605 413.673 460.672 413.6C466.135 413.47 471.296 413.238 476.557 411.597C481.482 410.06 486.401 407.677 490.966 405.299C497.699 401.791 506.881 394.886 514.709 396.1C516.896 396.439 519.291 397.242 520.422 399.334C521.067 400.529 520.93 402.229 520.426 403.446C519.655 405.307 518.048 406.219 516.314 407.06C509.484 410.372 501.646 411.319 494.92 415.025C487.564 419.079 482.101 425.519 474.344 429.188C467.571 432.391 458.94 433.127 452.858 437.3C450.028 439.241 448.135 442.215 446.062 444.885C441.173 451.184 435.527 457.288 428.369 461.014C418.543 466.128 407.804 467.854 397.413 471.318C390.543 473.607 384.191 477.081 377.632 480.106C363.482 486.63 347.11 489.529 332.169 483.911C321.85 480.032 314.052 472.037 304.631 466.632C297.645 462.624 289.459 461.131 282.936 456.286C274.125 449.743 270.884 438.847 262.963 431.57C255.263 424.494 245.98 420.874 237.127 415.669C227.798 410.185 220.177 402.627 213.2 394.455C209.929 390.623 206.536 386.6 204.513 381.938C203.66 379.972 203.733 377.929 204.576 375.966C205.245 374.408 206.761 372.551 208.446 372.052C210.901 371.326 214.242 372.049 216.377 373.367C220.939 376.186 224.808 380.85 228.642 384.571L244.751 398.722C248.257 401.582 251.913 404.706 255.858 406.928C258.557 408.447 261.583 409.261 264.624 408.298C266.164 407.811 267.558 406.874 268.29 405.389C269.115 403.712 268.718 402.053 267.794 400.544C264.864 395.763 260.244 391.497 256.455 387.347C247.838 377.911 239.034 368.136 232.025 357.422C229.155 353.036 226.272 348.363 224.726 343.312C223.58 339.571 223.451 335.603 225.435 332.126C226.573 330.131 228.628 328.349 230.902 327.8C233.911 327.074 235.499 328.716 237.365 330.76C242.784 336.696 246.016 345.243 250.47 351.989C254.62 358.273 259.854 363.357 264.618 369.129L277.183 385.067C279.055 387.272 280.995 389.749 283.461 391.314C285.419 392.557 287.91 393.101 290.184 392.445C291.736 391.997 293.036 390.711 293.671 389.25C296.771 382.118 282.667 362.578 279.854 355.253C283.775 349.701 285.586 345.809 285.223 338.845C285.209 338.557 284.988 338.201 285.176 337.983C285.391 337.733 286.633 337.213 286.992 337.014C288.924 335.941 290.245 334.88 291.188 332.818C294.784 324.955 289.872 313.101 286.95 305.562Z"/>
	<path fill="#3626A7" transform="scale(0.666667 0.666667)" d="M435.365 145.758C445.959 162.683 453.761 182.962 449.03 203.196C442.111 232.783 415.074 254.826 393.82 274.563L370.818 297.163C363.722 304.519 356.719 312.406 350.519 320.538L339.512 336.067C339.36 335.68 339.164 334.861 338.922 334.561C338.204 333.67 336.386 332.65 335.397 332.014L324.296 325.634C324.243 323.858 325.351 321.793 325.908 320.097C328.556 312.023 331.365 304.145 335.255 296.561C333.232 294.972 330.97 293.676 328.875 292.181C326.711 290.636 324.976 288.857 322.289 288.324C317.052 287.284 312.276 286.473 306.913 286.514C304.433 274.182 300.969 263.436 294.235 252.705C292.415 249.805 290.228 247.126 288.308 244.285C289.105 237.744 291.36 231.418 294.121 225.451C300.586 211.476 309.845 200.143 320.891 189.512C333.825 177.064 349.423 168.343 365.916 161.505C373.037 158.553 380.241 155.57 387.645 153.399C397.872 150.402 408.623 148.54 419.19 147.223C424.542 146.556 429.959 145.667 435.365 145.758Z"/>
	<path fill="#FCFAF0" transform="scale(0.666667 0.666667)" d="M344.368 243.496C347.983 243.257 351.287 244.122 354.375 245.979C357.919 248.11 360.773 251.866 361.705 255.892C362.775 260.514 361.94 265.038 359.397 269.062C356.555 273.56 352.236 275.918 347.166 277.058C343.327 277.475 339.834 276.873 336.558 274.716C332.936 272.33 330.325 268.266 329.553 264C328.681 259.184 329.711 254.202 332.553 250.205C335.507 246.049 339.496 244.288 344.368 243.496Z"/>
	<path fill="#FCFAF0" transform="scale(0.666667 0.666667)" d="M389.933 191.38C393.553 191.566 396.646 192.294 399.683 194.348C404.004 197.27 407.138 202.024 408.074 207.157C408.977 212.115 407.583 217.622 404.639 221.685C401.172 226.472 396.511 228.565 390.834 229.467C386.68 229.555 383.231 228.733 379.875 226.106C375.958 223.04 373.023 217.795 372.499 212.812C371.96 207.686 372.893 202.587 376.202 198.527C379.874 194.021 384.228 192.02 389.933 191.38Z"/>
	<defs>
		<linearGradient id="gradient_0" gradientUnits="userSpaceOnUse" x1="308.00269" y1="225.66022" x2="528.27863" y2="207.24286">
			<stop offset="0" stop-color="#3A0044"/>
			<stop offset="1" stop-color="#002542"/>
		</linearGradient>
	</defs>
	<path fill="url(#gradient_0)" transform="scale(0.666667 0.666667)" d="M297.688 74.0653C309.831 67.8901 324.066 64.916 337.334 62.4507C347.043 60.6466 357.03 58.3572 366.833 57.3098C374.398 56.5015 382.04 56.7069 389.625 57.0017C403.883 57.5559 417.701 59.0896 431.647 62.1996C456.087 66.2724 479.683 74.3124 501.455 86.1235C520.842 96.6408 538.847 110.573 551.809 128.63L555.473 133.908L576.654 166.439C582.799 178.431 587.422 191.659 590.511 204.76C589.586 206.388 590.011 208.927 589.839 210.779C589.613 213.217 589.232 215.666 588.756 218.067C587.414 224.84 585.337 232.634 582.251 238.829C576.738 253.397 568.682 267.044 558.171 278.564C550.539 286.929 541.525 294.195 532.261 300.66C519.965 309.241 507.372 317.036 495.728 326.572C489.816 330.926 484.225 336.248 479.653 341.996C476.201 346.336 473.258 351.076 470.124 355.646C465.741 361.552 461.369 367.626 456.462 373.109C452.607 377.416 448.092 381.353 444.546 385.903C439.126 392.859 435.668 401.373 429.06 407.338C425.792 410.288 422.375 411.153 418.353 412.688L417.54 412.535C416.08 416.216 414.614 419.717 412.303 422.962C405.686 432.255 395.894 437.291 384.851 439.277C377.437 440.611 369.52 440.157 362.194 438.515C349.725 435.721 338.611 428.728 331.111 418.312C329.438 415.989 328.277 413.449 326.737 411.071L326.399 410.558C324.46 406.19 323.473 401.497 322.51 396.841L323.826 379.111C325.064 372.583 326.137 365.688 328.589 359.492C328.753 357.996 329.714 356.001 330.26 354.579C332.713 348.19 335.789 341.812 339.512 336.067L350.519 320.538C356.719 312.406 363.722 304.519 370.818 297.163L393.82 274.563C415.074 254.826 442.111 232.783 449.03 203.196C453.761 182.962 445.959 162.683 435.365 145.758C432.166 140.351 427.145 135.265 422.089 131.567C423.963 129.757 426.285 128.513 428.486 127.146C432.845 124.438 437.71 121.583 441.276 117.885L442.49 118.626C442.713 117.963 442.758 117.425 442.352 116.812C441.413 115.4 439.769 114.038 438.562 112.831C433.072 107.34 426.662 103.018 420.021 99.0699C416.894 97.2112 413.636 95.1637 410.275 93.7672C405.071 91.6048 399.421 90.5037 394.001 88.9995C378.437 84.6794 363.102 80.3078 346.949 78.9071L314.454 76.799C309.757 76.5794 304.275 77.1004 299.728 76.2456L297.375 75.9412C296.811 76.4993 296.636 76.3137 295.875 76.3162C295.685 75.6089 297.286 75.1125 297.688 74.0653Z"/>
	<defs>
		<linearGradient id="gradient_1" gradientUnits="userSpaceOnUse" x1="473.74164" y1="373.49887" x2="333.79688" y2="204.14937">
			<stop offset="0" stop-color="#FFE818"/>
			<stop offset="1" stop-color="#DDD8FF"/>
		</linearGradient>
	</defs>
	<path fill="url(#gradient_1)" transform="scale(0.666667 0.666667)" d="M441.276 117.885L442.49 118.626L442.686 118.973C443.957 120.945 446.183 122.747 447.785 124.497C449.835 126.737 451.72 129.168 453.503 131.623C466.098 148.965 475.533 168.898 475.658 190.629C475.679 194.391 475.629 198.314 474.986 202.024C469.79 232.014 448.658 253.27 427.696 273.554L388.912 310.71C377.851 321.887 367.474 334.202 359.241 347.625C353.997 356.175 349.194 365.663 347.637 375.653L347.114 385.331C347.368 389.716 347.718 393.439 350.46 397.06C351.342 398.552 352.696 399.688 354.014 400.794C359.523 405.417 367.241 408.008 374.42 407.192C378.913 406.681 383.57 404.428 386.288 400.75C390.412 395.167 388.267 390.137 387.418 384.037C387.343 383.496 387.105 382.591 387.187 382.095C387.643 379.358 391.761 375.308 393.448 373.077C402.658 375.841 412.744 381.701 417.218 390.577L417.71 391.889C418.562 398.524 419.321 405.995 417.54 412.535C416.08 416.216 414.614 419.717 412.303 422.962C405.686 432.255 395.894 437.291 384.851 439.277C377.437 440.611 369.52 440.157 362.194 438.515C349.725 435.721 338.611 428.728 331.111 418.312C329.438 415.989 328.277 413.449 326.737 411.071L326.399 410.558C324.46 406.19 323.473 401.497 322.51 396.841L323.826 379.111C325.064 372.583 326.137 365.688 328.589 359.492C328.753 357.996 329.714 356.001 330.26 354.579C332.713 348.19 335.789 341.812 339.512 336.067L350.519 320.538C356.719 312.406 363.722 304.519 370.818 297.163L393.82 274.563C415.074 254.826 442.111 232.783 449.03 203.196C453.761 182.962 445.959 162.683 435.365 145.758C432.166 140.351 427.145 135.265 422.089 131.567C423.963 129.757 426.285 128.513 428.486 127.146C432.845 124.438 437.71 121.583 441.276 117.885Z"/>
	<path fill="#FF6201" transform="scale(0.666667 0.666667)" d="M431.647 62.1996C456.087 66.2724 479.683 74.3124 501.455 86.1235C520.842 96.6408 538.847 110.573 551.809 128.63L555.473 133.908L576.654 166.439C582.799 178.431 587.422 191.659 590.511 204.76C589.586 206.388 590.011 208.927 589.839 210.779C589.613 213.217 589.232 215.666 588.756 218.067C587.414 224.84 585.337 232.634 582.251 238.829C576.738 253.397 568.682 267.044 558.171 278.564C550.539 286.929 541.525 294.195 532.261 300.66C519.965 309.241 507.372 317.036 495.728 326.572C489.816 330.926 484.225 336.248 479.653 341.996C476.201 346.336 473.258 351.076 470.124 355.646C465.741 361.552 461.369 367.626 456.462 373.109C452.607 377.416 448.092 381.353 444.546 385.903C439.126 392.859 435.668 401.373 429.06 407.338C425.792 410.288 422.375 411.153 418.353 412.688L417.54 412.535C419.321 405.995 418.562 398.524 417.71 391.889L417.218 390.577C412.744 381.701 402.658 375.841 393.448 373.077C391.761 375.308 387.643 379.358 387.187 382.095C387.105 382.591 387.343 383.496 387.418 384.037C388.267 390.137 390.412 395.167 386.288 400.75C383.57 404.428 378.913 406.681 374.42 407.192C367.241 408.008 359.523 405.417 354.014 400.794C352.696 399.688 351.342 398.552 350.46 397.06C350.522 396.598 350.507 396.306 350.333 395.869C349.245 393.141 349.002 390.704 350.023 387.868C352.209 381.797 358.191 377.332 363.802 374.599C372.871 370.183 383.947 369.645 393.439 372.946C396.155 369.806 397.913 364.685 400.106 361.023C405.959 351.25 412.911 341.949 420.973 333.884C440.295 314.558 463.563 300.051 483.619 281.581C493.739 272.261 502.709 261.766 510.13 250.181C526.64 224.406 530.91 193.471 524.373 163.882C516.739 129.326 491.514 95.8644 461.494 77.4279C454.707 73.2593 447.596 69.8604 440.422 66.4237C437.836 65.1851 434.587 64.2136 432.253 62.6301L431.647 62.1996Z"/>
	<path fill="#3626A7" transform="scale(0.666667 0.666667)" d="M555.473 133.908L576.654 166.439C582.799 178.431 587.422 191.659 590.511 204.76C589.586 206.388 590.011 208.927 589.839 210.779C589.613 213.217 589.232 215.666 588.756 218.067C587.414 224.84 585.337 232.634 582.251 238.829L581.669 238.242C580.733 238.925 580.661 239.178 580.21 240.188C579.315 242.193 578.499 245.206 577.182 246.86L567.989 244.104C566.186 243.608 563.988 243.235 562.363 242.318C559.483 247.925 556.583 253.615 553.07 258.856C542.078 275.254 526.269 289.029 509.196 298.782C504.16 301.659 498.795 303.903 493.641 306.559L482.016 312.891C480.065 314.004 477.828 315.645 475.737 316.342L474.562 316.652C473.981 316.301 473.479 315.921 472.957 315.488C480.611 309.676 488.369 304.066 495.603 297.717C512.131 283.209 525.667 265.609 536.231 246.378C549.037 223.066 556.029 195.722 558.418 169.318C559.003 162.846 559.559 156.188 558.998 149.695C558.505 143.983 557.056 139.332 555.473 133.908Z"/>
	<path fill="#5C0435" transform="scale(0.666667 0.666667)" d="M576.654 166.439C582.799 178.431 587.422 191.659 590.511 204.76C589.586 206.388 590.011 208.927 589.839 210.779C589.613 213.217 589.232 215.666 588.756 218.067C587.414 224.84 585.337 232.634 582.251 238.829L581.669 238.242C580.733 238.925 580.661 239.178 580.21 240.188C579.315 242.193 578.499 245.206 577.182 246.86L567.989 244.104C566.186 243.608 563.988 243.235 562.363 242.318C567.21 232 569.945 221.062 572.119 209.915C573.812 201.238 575.231 192.326 575.971 183.518L576.496 172.35C576.531 170.301 576.256 168.483 576.654 166.439Z"/>
	<path fill="#191308" transform="scale(0.666667 0.666667)" d="M562.363 242.318C563.988 243.235 566.186 243.608 567.989 244.104L577.182 246.86C578.499 245.206 579.315 242.193 580.21 240.188C580.661 239.178 580.733 238.925 581.669 238.242L582.251 238.829C576.738 253.397 568.682 267.044 558.171 278.564C550.539 286.929 541.525 294.195 532.261 300.66C519.965 309.241 507.372 317.036 495.728 326.572C489.816 330.926 484.225 336.248 479.653 341.996C476.201 346.336 473.258 351.076 470.124 355.646C465.741 361.552 461.369 367.626 456.462 373.109C452.607 377.416 448.092 381.353 444.546 385.903C439.126 392.859 435.668 401.373 429.06 407.338C425.792 410.288 422.375 411.153 418.353 412.688L417.54 412.535C419.321 405.995 418.562 398.524 417.71 391.889C417.56 389.049 417.471 386.194 417.862 383.367C419.107 374.349 422.835 366.467 427.819 358.928C439.409 341.397 456.398 328.058 472.957 315.488C473.479 315.921 473.981 316.301 474.562 316.652L475.737 316.342C477.828 315.645 480.065 314.004 482.016 312.891L493.641 306.559C498.795 303.903 504.16 301.659 509.196 298.782C526.269 289.029 542.078 275.254 553.07 258.856C556.583 253.615 559.483 247.925 562.363 242.318Z"/>
</svg>
